<svg width="1007" height="256" viewBox="0 0 1007 256" fill="none" xmlns="http://www.w3.org/2000/svg">
<path d="M93.9871 90.8457H51.246V113.954H91.6024V144.399H51.246V168.242H93.9871V198.687H15.292V60.4008H93.9871V90.8457ZM210.345 106.618C202.029 96.47 191.756 91.3959 179.527 91.3959C174.146 91.3959 169.132 92.374 164.485 94.3303C159.96 96.2866 156.047 98.9765 152.745 102.4C149.443 105.701 146.814 109.675 144.857 114.321C143.022 118.967 142.105 123.98 142.105 129.36C142.105 134.862 143.022 139.937 144.857 144.583C146.814 149.229 149.443 153.264 152.745 156.687C156.169 160.111 160.143 162.801 164.668 164.757C169.193 166.713 174.085 167.692 179.343 167.692C190.839 167.692 201.173 162.801 210.345 153.019V195.569L206.676 196.853C201.173 198.809 196.037 200.215 191.267 201.071C186.497 202.049 181.789 202.538 177.142 202.538C167.603 202.538 158.431 200.765 149.626 197.219C140.943 193.551 133.239 188.477 126.513 181.997C119.909 175.394 114.59 167.63 110.554 158.705C106.518 149.657 104.5 139.814 104.5 129.177C104.5 118.54 106.457 108.819 110.37 100.016C114.406 91.0902 119.726 83.4484 126.33 77.0905C133.056 70.6102 140.821 65.5972 149.626 62.0514C158.431 58.3833 167.664 56.5493 177.325 56.5493C182.829 56.5493 188.209 57.1607 193.468 58.3833C198.849 59.4838 204.475 61.2567 210.345 63.702V106.618ZM259.871 60.4008V168.242H302.979V198.687H223.917V60.4008H259.871ZM546.106 95.7976C542.192 92.6186 538.279 90.2955 534.366 88.8282C530.452 87.2387 526.661 86.444 522.992 86.444C518.345 86.444 514.554 87.5444 511.619 89.7453C508.684 91.9461 507.217 94.8194 507.217 98.3652C507.217 100.811 507.95 102.828 509.418 104.417C510.885 106.007 512.781 107.413 515.105 108.636C517.55 109.736 520.241 110.714 523.176 111.57C526.233 112.426 529.229 113.343 532.164 114.321C543.904 118.234 552.465 123.491 557.846 130.094C563.349 136.574 566.1 145.072 566.1 155.587C566.1 162.679 564.878 169.098 562.432 174.844C560.108 180.591 556.623 185.543 551.976 189.7C547.451 193.735 541.825 196.853 535.099 199.053C528.496 201.377 520.975 202.538 512.536 202.538C495.049 202.538 478.845 197.342 463.925 186.949L479.334 157.971C484.715 162.74 490.035 166.285 495.293 168.609C500.552 170.932 505.749 172.093 510.885 172.093C516.756 172.093 521.097 170.748 523.91 168.058C526.845 165.368 528.312 162.312 528.312 158.888C528.312 156.81 527.945 155.037 527.211 153.57C526.478 151.98 525.255 150.574 523.543 149.351C521.831 148.006 519.568 146.784 516.756 145.683C514.065 144.583 510.763 143.36 506.85 142.015C502.203 140.548 497.617 138.958 493.092 137.247C488.689 135.413 484.715 133.028 481.168 130.094C477.744 127.159 474.932 123.491 472.73 119.09C470.651 114.566 469.612 108.88 469.612 102.033C469.612 95.1862 470.712 89.0116 472.914 83.5096C475.237 77.8852 478.417 73.1167 482.453 69.2041C486.61 65.1693 491.624 62.0514 497.494 59.8506C503.487 57.6497 510.152 56.5493 517.489 56.5493C524.338 56.5493 531.492 57.5275 538.952 59.4838C546.411 61.3178 553.565 64.0688 560.414 67.7369L546.106 95.7976ZM615.533 60.4008V198.687H579.579V60.4008H615.533ZM666.625 129.544C666.625 135.046 667.664 140.12 669.743 144.766C671.822 149.412 674.635 153.447 678.181 156.871C681.728 160.294 685.825 162.984 690.472 164.94C695.241 166.775 700.255 167.692 705.514 167.692C710.772 167.692 715.725 166.775 720.372 164.94C725.141 162.984 729.299 160.294 732.846 156.871C736.515 153.447 739.388 149.412 741.467 144.766C743.546 140.12 744.586 135.046 744.586 129.544C744.586 124.042 743.546 118.967 741.467 114.321C739.388 109.675 736.515 105.64 732.846 102.217C729.299 98.7931 725.141 96.1644 720.372 94.3303C715.725 92.374 710.772 91.3959 705.514 91.3959C700.255 91.3959 695.241 92.374 690.472 94.3303C685.825 96.1644 681.728 98.7931 678.181 102.217C674.635 105.64 671.822 109.675 669.743 114.321C667.664 118.967 666.625 124.042 666.625 129.544ZM629.02 129.544C629.02 119.273 630.915 109.736 634.706 100.933C638.497 92.0072 643.756 84.2432 650.482 77.6407C657.208 71.0381 665.218 65.9029 674.512 62.2348C683.929 58.4445 694.263 56.5493 705.514 56.5493C716.642 56.5493 726.915 58.4445 736.331 62.2348C745.748 65.9029 753.819 71.0381 760.545 77.6407C767.393 84.2432 772.713 92.0072 776.504 100.933C780.295 109.736 782.191 119.273 782.191 129.544C782.191 139.814 780.295 149.412 776.504 158.338C772.713 167.141 767.393 174.844 760.545 181.447C753.819 188.049 745.748 193.246 736.331 197.036C726.915 200.704 716.642 202.538 705.514 202.538C694.263 202.538 683.929 200.704 674.512 197.036C665.218 193.246 657.208 188.049 650.482 181.447C643.756 174.844 638.497 167.141 634.706 158.338C630.915 149.412 629.02 139.814 629.02 129.544ZM795.729 198.687V60.4008H831.683L898.088 144.95V60.4008H933.858V198.687H898.088L831.683 114.138V198.687H795.729ZM953.581 181.08C953.581 178.145 954.132 175.394 955.232 172.827C956.333 170.137 957.862 167.814 959.818 165.857C961.775 163.901 964.037 162.373 966.605 161.272C969.296 160.172 972.109 159.622 975.044 159.622C977.979 159.622 980.73 160.172 983.298 161.272C985.989 162.373 988.312 163.901 990.269 165.857C992.226 167.814 993.754 170.137 994.855 172.827C995.956 175.394 996.506 178.145 996.506 181.08C996.506 184.014 995.956 186.827 994.855 189.516C993.754 192.084 992.226 194.346 990.269 196.302C988.312 198.259 985.989 199.787 983.298 200.887C980.73 201.988 977.979 202.538 975.044 202.538C972.109 202.538 969.296 201.988 966.605 200.887C964.037 199.787 961.775 198.259 959.818 196.302C957.862 194.346 956.333 192.084 955.232 189.516C954.132 186.827 953.581 184.014 953.581 181.08Z" fill="black"/>
<path d="M333.105 187.122C329.849 184.018 326.652 180.973 323.461 177.937C323.755 177.198 324.34 176.842 324.799 176.389C331.878 169.416 338.967 162.451 346.056 155.487C346.693 154.861 347.333 154.239 348 153.647C348.819 152.918 349.524 152.956 350.216 153.731C352.996 156.84 356.115 159.572 359.468 162.042C360.653 162.914 360.672 162.918 359.732 164.058C353.166 172.024 346.593 179.985 340.024 187.948C339.506 188.576 338.982 189.2 338.474 189.836C337.79 190.69 337.108 190.812 336.214 190.053C335.146 189.145 334.15 188.17 333.105 187.122Z" fill="black"/>
<path d="M430.863 185.875C429.449 187.269 428.105 188.618 426.737 189.941C425.667 190.973 425.101 190.91 424.175 189.752C417.24 181.073 410.081 172.579 402.965 164.048C402.097 163.008 402.089 162.778 403.207 162.055C406.626 159.847 409.524 157.03 412.423 154.215C413.732 152.944 414.152 152.929 415.484 154.244C421.372 160.059 427.255 165.88 433.152 171.687C434.812 173.322 436.522 174.905 438.191 176.534C439.358 177.674 439.377 177.725 438.17 178.893C435.768 181.216 433.461 183.638 430.863 185.875Z" fill="black"/>
<path d="M441.228 82.7575C443.697 86.1031 446.114 89.3845 448.55 92.6506C448.988 93.2378 448.881 93.5374 448.254 93.9107C440.546 98.5025 433.145 103.578 425.571 108.379C423.605 109.626 421.602 110.818 419.659 112.1C418.826 112.65 418.459 112.336 418.029 111.609C415.793 107.824 413.342 104.19 410.263 101.022C409.547 100.283 409.77 99.8086 410.518 99.2475C417.16 94.2552 423.658 89.0773 430.103 83.8327C432.27 82.0686 434.414 80.272 436.526 78.4416C437.246 77.8165 437.685 77.7571 438.255 78.629C439.168 80.0235 440.2 81.3392 441.228 82.7575Z" fill="black"/>
<path d="M327.799 101.954C323.588 99.3051 319.453 96.6914 315.298 94.1119C314.513 93.6255 314.311 93.2312 314.914 92.3877C318.147 87.8777 321.321 83.3261 324.514 78.7884C324.757 78.4438 324.919 78.0284 325.428 77.8188C326.735 78.9063 328.042 80.0514 329.408 81.1222C336.4 86.6048 343.407 92.0696 350.412 97.5368C351.268 98.205 352.133 98.8619 353.012 99.5003C353.564 99.9021 353.689 100.269 353.152 100.81C350.012 103.977 347.561 107.651 345.336 111.491C344.586 112.787 344.4 112.816 343.066 111.945C337.997 108.636 332.933 105.317 327.799 101.954Z" fill="black"/>
<path d="M333.516 155.496C327.185 158.095 320.925 160.635 314.696 163.242C313.666 163.672 313.276 163.427 312.938 162.44C311.297 157.631 309.615 152.835 307.918 148.044C307.007 145.469 306.969 145.43 309.588 144.685C319.1 141.982 328.622 139.314 338.14 136.628C338.811 136.438 339.506 136.278 340.123 135.97C341.027 135.52 341.43 135.714 341.675 136.706C342.489 139.993 343.719 143.134 345.177 146.186C345.544 146.956 345.942 147.716 346.377 148.449C346.88 149.294 346.788 149.822 345.802 150.236C341.721 151.948 337.662 153.714 333.516 155.496Z" fill="black"/>
<path d="M419.489 141.888C420.188 140.187 420.706 138.52 421.073 136.813C421.3 135.756 421.845 135.534 422.833 135.828C427.143 137.11 431.456 138.38 435.782 139.607C441.895 141.34 448.019 143.033 454.138 144.741C455.597 145.149 455.718 145.357 455.234 146.781C453.467 151.997 451.669 157.204 449.945 162.435C449.605 163.47 449.234 163.626 448.22 163.223C439.998 159.954 431.919 156.346 423.78 152.881C421.638 151.969 419.494 151.064 417.354 150.148C416.099 149.611 416.044 149.487 416.682 148.251C417.737 146.214 418.669 144.125 419.489 141.888Z" fill="black"/>
<path d="M354.72 57.839C355.36 57.7324 355.398 58.216 355.548 58.5415C360.239 68.7767 364.918 79.0177 369.621 89.2489C370.032 90.1462 369.795 90.5497 368.893 90.8936C365.071 92.3495 361.439 94.1866 358.049 96.4904C356.629 97.455 356.392 97.4457 355.496 95.9435C352.492 90.9077 349.555 85.8334 346.567 80.7883C343.897 76.279 341.193 71.7893 338.509 67.2889C338.392 67.0955 338.312 66.8814 338.155 66.548C343.678 63.6388 349.162 60.7502 354.72 57.839Z" fill="black"/>
<path d="M393.7 89.3289C397.293 81.5648 400.864 73.8927 404.407 66.2071C405.733 63.3263 406.994 60.4146 408.322 57.4326C414.012 60.4865 419.573 63.471 425.181 66.4809C424.843 67.4865 424.247 68.2511 423.74 69.0556C418.254 77.7619 413.191 86.7204 407.814 95.492C407.773 95.5581 407.733 95.6246 407.691 95.6903C406.543 97.5134 406.552 97.4999 404.783 96.3347C401.5 94.1717 398.063 92.2947 394.377 90.9067C393.572 90.6039 393.324 90.1892 393.7 89.3289Z" fill="black"/>
<path d="M402.022 176.335C404.449 183.872 406.849 191.32 409.27 198.83C407.905 199.525 406.495 199.798 405.121 200.14C400.724 201.235 396.303 202.24 391.91 203.346C390.846 203.614 390.477 203.306 390.267 202.28C388.13 191.82 385.956 181.37 383.791 170.916C383.768 170.802 383.732 170.691 383.714 170.576C383.468 168.944 383.462 168.908 385.056 168.648C389.313 167.954 393.479 166.927 397.478 165.285C398.288 164.952 398.573 165.306 398.798 166.036C399.842 169.446 400.925 172.843 402.022 176.335Z" fill="black"/>
<path d="M363.076 168.741C363.365 167.759 363.645 166.871 363.869 165.968C364.1 165.029 364.603 164.941 365.422 165.293C369.544 167.062 373.843 168.195 378.284 168.791C378.92 168.876 379.016 169.167 378.991 169.722C378.907 171.714 378.286 173.605 377.925 175.544C376.67 182.274 375.359 188.995 374.056 195.716C373.622 197.959 373.047 200.179 372.731 202.437C372.58 203.528 372.154 203.621 371.294 203.413C368.283 202.685 365.266 201.976 362.254 201.25C359.398 200.565 356.545 199.867 353.541 199.139C356.933 189.05 360.047 178.958 363.076 168.741Z" fill="black"/>
<path d="M372.496 60.4443C372.379 58.1697 372.263 56.0071 372.141 53.7184C378.42 53.7184 384.635 53.7184 390.874 53.7184C390.278 65.6342 389.686 77.4609 389.09 89.3989C385.44 88.8538 381.995 88.9142 378.551 88.9843C377.39 89.008 376.228 89.1255 375.07 89.2283C374.439 89.2842 374.229 89.0506 374.099 88.4096C373.765 86.7602 373.816 85.0822 373.744 83.432C373.446 76.6902 372.785 69.9671 372.702 63.2143C372.693 62.3307 372.42 61.4547 372.496 60.4443Z" fill="black"/>
<path d="M342.046 116.327C342.818 116.503 342.86 116.958 342.684 117.511C341.866 120.1 341.465 122.772 341.079 125.451C340.861 126.964 340.953 128.474 340.955 129.984C340.957 130.902 340.615 131.26 339.715 131.188C336.468 130.927 333.218 130.689 329.971 130.43C326.419 130.146 322.869 129.835 319.317 129.559C315.029 129.226 310.737 128.899 306.445 128.613C305.389 128.543 305.507 127.847 305.578 127.212C305.782 125.366 306.033 123.526 306.289 121.687C306.82 117.856 307.368 114.027 307.913 110.198C307.928 110.087 307.98 109.981 308.091 109.641C319.403 111.667 330.646 114.145 342.046 116.327Z" fill="black"/>
<path d="M455.233 111.489C455.779 116.237 456.318 120.883 456.876 125.526C456.968 126.292 457.138 127.048 457.275 127.808C457.396 128.469 457.208 128.819 456.454 128.852C453.32 128.985 450.184 129.112 447.056 129.332C442.23 129.671 437.409 130.088 432.586 130.467C429.379 130.719 426.173 130.94 422.97 131.224C422.174 131.294 421.975 131.016 421.941 130.271C421.738 125.976 421.358 121.699 420.269 117.524C420.014 116.553 420.309 116.228 421.266 116.062C428.242 114.853 435.213 113.613 442.176 112.343C446.097 111.628 450.001 110.836 453.914 110.081C454.212 110.024 454.516 109.987 454.787 109.945C455.254 110.369 455.219 110.884 455.233 111.489Z" fill="black"/>
</svg>
