<svg width="171" height="168" viewBox="0 0 171 168" fill="none" xmlns="http://www.w3.org/2000/svg">
<path d="M31.7278 149.398C28.0882 145.927 24.5128 142.523 20.9473 139.128C21.2755 138.303 21.9284 137.905 22.4426 137.398C30.3567 129.602 38.2796 121.814 46.2038 114.028C46.9151 113.329 47.6315 112.633 48.3765 111.971C49.2933 111.156 50.0819 111.199 50.8555 112.065C53.9619 115.541 57.4479 118.596 61.1965 121.357C62.521 122.332 62.542 122.337 61.4921 123.611C54.1523 132.517 46.8057 141.418 39.4616 150.321C38.8823 151.023 38.2975 151.721 37.729 152.432C36.965 153.387 36.2026 153.524 35.2032 152.675C34.0089 151.66 32.8955 150.57 31.7278 149.398Z" fill="black"/>
<path d="M141.007 148.004C139.426 149.563 137.924 151.071 136.394 152.549C135.199 153.704 134.566 153.634 133.531 152.339C125.778 142.635 117.775 133.138 109.82 123.6C108.851 122.437 108.843 122.18 110.092 121.372C113.913 118.903 117.153 115.754 120.393 112.606C121.856 111.185 122.328 111.168 123.816 112.638C130.397 119.14 136.973 125.648 143.565 132.14C145.421 133.969 147.333 135.739 149.197 137.56C150.502 138.835 150.523 138.892 149.173 140.198C146.489 142.795 143.911 145.503 141.007 148.004Z" fill="black"/>
<path d="M152.594 32.7121C155.355 36.4526 158.056 40.1213 160.779 43.7731C161.269 44.4298 161.148 44.7647 160.447 45.182C151.831 50.3159 143.559 55.9902 135.092 61.3589C132.894 62.7526 130.656 64.0859 128.484 65.5181C127.551 66.1333 127.142 65.783 126.662 64.9694C124.162 60.7377 121.421 56.6754 117.981 53.1332C117.178 52.3069 117.429 51.7762 118.264 51.1489C125.689 45.5671 132.953 39.7778 140.157 33.9142C142.581 31.9417 144.976 29.9331 147.337 27.8866C148.144 27.1878 148.633 27.1212 149.271 28.0961C150.291 29.6551 151.445 31.1263 152.594 32.7121Z" fill="black"/>
<path d="M25.7959 54.1751C21.0886 51.2133 16.4674 48.291 11.8223 45.4071C10.9462 44.8631 10.719 44.4224 11.3948 43.4793C15.008 38.4369 18.5561 33.3478 22.126 28.2743C22.3971 27.889 22.5786 27.4246 23.1468 27.1903C24.6069 28.4061 26.0685 29.6864 27.5952 30.8837C35.4119 37.0137 43.2441 43.1237 51.0744 49.2363C52.0313 49.9833 52.9987 50.7178 53.9805 51.4316C54.5984 51.8808 54.7372 52.2904 54.1373 52.8957C50.627 56.4368 47.8872 60.5442 45.4001 64.8381C44.5607 66.2874 44.3551 66.3188 42.8644 65.3455C37.1972 61.6453 31.5367 57.9347 25.7959 54.1751Z" fill="black"/>
<path d="M32.188 114.038C25.1114 116.944 18.1148 119.783 11.1496 122.698C9.99964 123.179 9.56343 122.906 9.18632 121.802C7.35022 116.425 5.47123 111.062 3.57521 105.706C2.55606 102.827 2.51159 102.784 5.44194 101.951C16.0745 98.9282 26.7186 95.9462 37.3565 92.9423C38.1064 92.7306 38.8837 92.5515 39.5735 92.2074C40.5836 91.7034 41.0354 91.921 41.3095 93.03C42.2179 96.705 43.5952 100.216 45.224 103.629C45.6349 104.49 46.0775 105.339 46.5649 106.159C47.1268 107.104 47.0251 107.694 45.9215 108.157C41.36 110.071 36.8239 112.045 32.188 114.038Z" fill="black"/>
<path d="M128.293 98.8234C129.076 96.9216 129.653 95.0577 130.064 93.1499C130.319 91.9683 130.926 91.7191 132.032 92.048C136.849 93.4814 141.671 94.9014 146.507 96.2732C153.339 98.2114 160.185 100.104 167.025 102.014C168.658 102.469 168.792 102.703 168.253 104.294C166.276 110.126 164.266 115.948 162.34 121.797C161.959 122.954 161.545 123.128 160.41 122.677C151.219 119.022 142.188 114.989 133.091 111.114C130.696 110.095 128.299 109.083 125.907 108.058C124.505 107.458 124.442 107.319 125.156 105.938C126.334 103.66 127.376 101.325 128.293 98.8234Z" fill="black"/>
<path d="M55.8924 4.85165C56.6075 4.7325 56.6498 5.27322 56.8166 5.63707C62.0614 17.0807 67.2923 28.5307 72.547 39.9698C73.0079 40.9731 72.7428 41.4242 71.7334 41.8088C67.4612 43.4367 63.4011 45.4905 59.6125 48.0664C58.0264 49.1449 57.7601 49.1344 56.7587 47.4548C53.4015 41.8245 50.117 36.1511 46.7774 30.5103C43.7926 25.4687 40.7709 20.4489 37.7694 15.4173C37.6404 15.201 37.5504 14.9616 37.374 14.5888C43.5475 11.3361 49.677 8.10661 55.8924 4.85165Z" fill="black"/>
<path d="M99.465 40.0594C103.48 31.3786 107.472 22.8007 111.432 14.2078C112.916 10.987 114.324 7.73136 115.809 4.39734C122.17 7.81174 128.387 11.1487 134.656 14.5139C134.278 15.6383 133.61 16.4932 133.043 17.3927C126.913 27.1268 121.251 37.1429 115.241 46.95C115.196 47.0241 115.151 47.0985 115.105 47.1719C113.82 49.2102 113.83 49.195 111.853 47.8924C108.183 45.4739 104.34 43.3752 100.221 41.8235C99.3217 41.4849 99.0438 41.0213 99.465 40.0594Z" fill="black"/>
<path d="M108.766 137.337C111.478 145.764 114.162 154.091 116.869 162.488C115.344 163.265 113.767 163.571 112.231 163.953C107.315 165.178 102.375 166.302 97.4619 167.538C96.2729 167.838 95.861 167.492 95.6268 166.346C93.2378 154.652 90.8068 142.966 88.3873 131.279C88.361 131.152 88.3214 131.027 88.302 130.899C88.0261 129.074 88.0201 129.033 89.8014 128.743C94.561 127.967 99.2174 126.819 103.687 124.983C104.594 124.61 104.912 125.006 105.162 125.823C106.33 129.635 107.541 133.433 108.766 137.337Z" fill="black"/>
<path d="M65.2313 128.847C65.5535 127.749 65.8675 126.756 66.1173 125.747C66.3773 124.696 66.9379 124.598 67.8553 124.992C72.4615 126.97 77.2689 128.236 82.2319 128.902C82.9428 128.998 83.0495 129.324 83.023 129.944C82.9278 132.171 82.2338 134.286 81.8298 136.453C80.427 143.978 78.9624 151.492 77.5061 159.007C77.0203 161.514 76.3775 163.996 76.0259 166.521C75.856 167.74 75.3808 167.846 74.4183 167.613C71.0517 166.799 67.6801 166.005 64.3126 165.195C61.1205 164.427 57.931 163.648 54.5742 162.833C58.365 151.554 61.8462 140.27 65.2313 128.847Z" fill="black"/>
<path d="M75.7618 7.76434C75.6317 5.22131 75.5023 2.8033 75.3652 0.244263C82.3835 0.244263 89.3324 0.244263 96.3069 0.244263C95.6404 13.5671 94.9789 26.79 94.3112 40.1373C90.2322 39.5279 86.3809 39.5954 82.5317 39.6739C81.2328 39.7004 79.935 39.8316 78.6396 39.9465C77.9345 40.0091 77.7011 39.7481 77.5557 39.0314C77.1815 37.187 77.2394 35.3111 77.1576 33.466C76.8235 25.9283 76.0847 18.4115 75.9945 10.8614C75.9827 9.87341 75.6775 8.894 75.7618 7.76434Z" fill="black"/>
<path d="M41.7224 70.2454C42.585 70.4412 42.6322 70.9507 42.4371 71.5684C41.5224 74.464 41.0728 77.4505 40.6417 80.4462C40.3983 82.138 40.5013 83.8264 40.5039 85.5144C40.5054 86.5411 40.122 86.941 39.1168 86.8602C35.4869 86.5684 31.8549 86.3029 28.2249 86.0128C24.2548 85.6955 20.287 85.3473 16.3162 85.0391C11.5211 84.667 6.7253 84.3009 1.9265 83.982C0.746676 83.9036 0.879255 83.1246 0.958008 82.4147C1.18689 80.3516 1.46596 78.2936 1.75167 76.2372C2.34676 71.9543 2.95825 67.6736 3.56664 63.3926C3.58433 63.2681 3.64295 63.1494 3.76655 62.77C16.4115 65.0346 28.9793 67.8051 41.7224 70.2454Z" fill="black"/>
<path d="M168.248 64.836C168.86 70.1442 169.463 75.3382 170.086 80.5298C170.189 81.3859 170.379 82.2315 170.533 83.0813C170.667 83.8198 170.459 84.2121 169.614 84.2481C166.11 84.3975 162.606 84.5388 159.108 84.7848C153.714 85.1644 148.325 85.6304 142.933 86.054C139.35 86.3355 135.764 86.583 132.185 86.9001C131.295 86.979 131.072 86.6676 131.033 85.8345C130.807 81.0334 130.383 76.2513 129.164 71.5825C128.881 70.4974 129.209 70.134 130.28 69.9483C138.078 68.5966 145.869 67.2108 153.655 65.7906C158.036 64.9914 162.402 64.1057 166.775 63.2618C167.109 63.1973 167.448 63.1558 167.751 63.1088C168.273 63.5829 168.234 64.1595 168.248 64.836Z" fill="black"/>
</svg>
